<?xml version="1.0" standalone="no"?>
<!DOCTYPE svg PUBLIC "-//W3C//DTD SVG 20010904//EN"
 "http://www.w3.org/TR/2001/REC-SVG-20010904/DTD/svg10.dtd">
<svg version="1.0" xmlns="http://www.w3.org/2000/svg"
 width="512.000000pt" height="512.000000pt" viewBox="0 0 512.000000 512.000000"
 preserveAspectRatio="xMidYMid meet">
<metadata>
Created by potrace 1.14, written by Peter Selinger 2001-2017
</metadata>
<g transform="translate(0.000000,512.000000) scale(0.100000,-0.100000)"
fill="#000000" stroke="none">
<path d="M2315 4799 c-141 -17 -326 -59 -462 -104 -803 -268 -1388 -957 -1519
-1791 -22 -140 -29 -405 -15 -549 41 -424 197 -821 457 -1165 291 -384 713
-670 1180 -799 174 -49 330 -72 525 -78 281 -9 529 26 786 112 803 268 1388
957 1519 1791 22 140 29 405 15 549 -41 424 -197 821 -457 1165 -291 384 -713
670 -1180 799 -196 55 -327 73 -559 76 -115 2 -246 -1 -290 -6z m1520 -2111
c79 -62 73 -223 -10 -262 -29 -14 -164 -16 -1273 -16 l-1239 0 -28 22 c-78 61
-73 222 8 262 29 14 167 16 1273 16 l1241 0 28 -22z"/>
</g>
</svg>
